<?xml version="1.0" encoding="utf-8"?>
<!-- Generator: Adobe Illustrator 16.0.0, SVG Export Plug-In . SVG Version: 6.00 Build 0)  -->
<!DOCTYPE svg PUBLIC "-//W3C//DTD SVG 1.1//EN" "http://www.w3.org/Graphics/SVG/1.1/DTD/svg11.dtd">
<svg version="1.1" id="Layer_1" xmlns="http://www.w3.org/2000/svg" xmlns:xlink="http://www.w3.org/1999/xlink" x="0px" y="0px"
	 width="40px" height="77.744px" viewBox="0 0 40 77.744" enable-background="new 0 0 40 77.744" xml:space="preserve">
<g>
	<g>
		<g>
			<g>
				<g>
					<path id="SVGID_1_" fill="#5B5B5B" d="M418.771,567.359v7.678c1.785,0,3.705-0.771,5.109-2.177
						c1.406-1.406,2.043-3.325,2.043-5.501H418.771L418.771,567.359z M429.383,544.852c-2.813,0-5.244,0.893-7.285,2.69
						c-2.041-1.784-4.475-2.69-7.166-2.69v7.679c0.771,0,2.043,0.378,2.689,1.148c0.771,0.771,1.15,1.542,1.15,2.177l0,0v10.99
						h7.164v-10.869v-0.122c0-0.893,0.379-1.663,1.027-2.298c0.635-0.635,1.404-1.026,2.299-1.026l0,0L429.383,544.852
						L429.383,544.852z M429.641,552.517c0.893,0.122,1.541,0.514,2.176,1.149c0.637,0.635,0.895,1.406,0.895,2.298
						s-0.381,1.663-1.027,2.433c-0.637,0.637-1.406,1.028-2.436,1.028h-3.066v7.678h3.188c3.07,0,5.625-1.148,7.801-3.325
						c2.178-2.177,3.191-4.731,3.191-7.801c0-2.946-1.029-5.624-3.191-7.678c-2.041-2.176-4.609-3.326-7.678-3.326L429.641,552.517
						L429.641,552.517z"/>
				</g>
				<g>
					<g>
						<g>
							<g>
								<defs>
									<path id="SVGID_2_" d="M418.771,567.359v7.678c1.785,0,3.705-0.771,5.109-2.177c1.406-1.406,2.043-3.325,2.043-5.501
										H418.771L418.771,567.359z M429.383,544.852c-2.813,0-5.244,0.893-7.285,2.69c-2.041-1.784-4.475-2.69-7.166-2.69v7.679
										c0.771,0,2.043,0.378,2.689,1.148c0.771,0.771,1.15,1.542,1.15,2.177l0,0v10.99h7.164v-10.869v-0.122
										c0-0.893,0.379-1.663,1.027-2.298c0.635-0.635,1.404-1.026,2.299-1.026l0,0L429.383,544.852L429.383,544.852z
										 M429.641,552.517c0.893,0.122,1.541,0.514,2.176,1.149c0.637,0.635,0.895,1.406,0.895,2.298s-0.381,1.663-1.027,2.433
										c-0.637,0.637-1.406,1.028-2.436,1.028h-3.066v7.678h3.188c3.07,0,5.625-1.148,7.801-3.325
										c2.178-2.177,3.191-4.731,3.191-7.801c0-2.946-1.029-5.624-3.191-7.678c-2.041-2.176-4.609-3.326-7.678-3.326
										L429.641,552.517L429.641,552.517z"/>
								</defs>
								<use xlink:href="#SVGID_2_"  overflow="visible" fill="#5B5B5B"/>
								<clipPath id="SVGID_4_">
									<use xlink:href="#SVGID_2_"  overflow="visible"/>
								</clipPath>
								<rect x="414.811" y="544.852" clip-path="url(#SVGID_4_)" fill="#5B5B5B" width="25.576" height="30.173"/>
							</g>
						</g>
					</g>
				</g>
			</g>
		</g>
		<g>
			<g>
				<g>
					<path id="SVGID_3_" fill="#5B5B5B" d="M411.352,544.852c-3.07,0-5.625,1.149-7.801,3.326c-2.178,2.176-3.189,4.731-3.189,7.678
						c0,3.068,1.027,5.625,3.189,7.801c2.041,2.176,4.609,3.324,7.678,3.324v-7.678c-0.893-0.122-1.541-0.514-2.176-1.148
						c-0.637-0.636-1.027-1.406-1.027-2.298c0-0.894,0.379-1.785,1.027-2.435c0.648-0.648,1.404-1.027,2.297-1.027h3.068v-7.678
						h-3.068v0.135H411.352z M414.811,544.852v10.99v0.122c0,0.893-0.377,1.663-1.027,2.298c-0.635,0.635-1.404,1.027-2.297,1.027
						l0,0v7.678l0,0c2.813,0,5.244-0.893,7.285-2.812c2.176,1.784,4.475,2.812,7.164,2.812v-7.678c-0.891,0-1.662-0.378-2.297-1.149
						c-0.635-0.77-1.027-1.541-1.148-2.298l0,0v-10.99H414.811z M416.988,538.971c-1.406,1.406-2.043,3.326-2.178,5.502h7.68v-7.678
						C420.178,536.795,418.395,537.565,416.988,538.971"/>
				</g>
				<g>
					<g>
						<g>
							<g>
								<defs>
									<path id="SVGID_5_" d="M411.352,544.852c-3.07,0-5.625,1.149-7.801,3.326c-2.178,2.176-3.189,4.731-3.189,7.678
										c0,3.068,1.027,5.625,3.189,7.801c2.041,2.176,4.609,3.324,7.678,3.324v-7.678c-0.893-0.122-1.541-0.514-2.176-1.148
										c-0.637-0.636-1.027-1.406-1.027-2.298c0-0.894,0.379-1.785,1.027-2.435c0.648-0.648,1.404-1.027,2.297-1.027h3.068v-7.678
										h-3.068v0.135H411.352z M414.811,544.852v10.99v0.122c0,0.893-0.377,1.663-1.027,2.298
										c-0.635,0.635-1.404,1.027-2.297,1.027l0,0v7.678l0,0c2.813,0,5.244-0.893,7.285-2.812
										c2.176,1.784,4.475,2.812,7.164,2.812v-7.678c-0.891,0-1.662-0.378-2.297-1.149c-0.635-0.77-1.027-1.541-1.148-2.298l0,0
										v-10.99H414.811z M416.988,538.971c-1.406,1.406-2.043,3.326-2.178,5.502h7.68v-7.678
										C420.178,536.795,418.395,537.565,416.988,538.971"/>
								</defs>
								<use xlink:href="#SVGID_5_"  overflow="visible" fill="#5B5B5B"/>
								<clipPath id="SVGID_6_">
									<use xlink:href="#SVGID_5_"  overflow="visible"/>
								</clipPath>
								<rect x="400.359" y="536.795" clip-path="url(#SVGID_6_)" fill="#5B5B5B" width="25.576" height="30.172"/>
							</g>
						</g>
					</g>
				</g>
			</g>
		</g>
	</g>
	<g>
		<g>
			<g>
				<g>
					<g>
						<g>
							<g>
								<defs>
									<path id="SVGID_7_" d="M418.771,606.86v7.679c1.785,0,3.705-0.771,5.109-2.177c1.406-1.406,2.043-3.325,2.043-5.502
										H418.771L418.771,606.86z M429.383,584.366c-2.813,0-5.244,0.892-7.285,2.689c-2.041-1.784-4.475-2.689-7.166-2.689v7.679
										c0.771,0,2.043,0.378,2.689,1.149c0.771,0.771,1.15,1.541,1.15,2.176l0,0v10.99h7.164v-10.99v-0.122
										c0-0.892,0.379-1.663,1.027-2.298c0.635-0.635,1.404-1.027,2.299-1.027l0,0L429.383,584.366L429.383,584.366
										L429.383,584.366z M429.641,592.031c0.893,0.122,1.541,0.514,2.176,1.148c0.637,0.636,0.895,1.406,0.895,2.298
										c0,0.893-0.381,1.662-1.027,2.434c-0.637,0.636-1.406,1.026-2.436,1.026h-3.066v7.68h3.188c3.07,0,5.625-1.149,7.801-3.325
										c2.178-2.177,3.191-4.731,3.191-7.8c0-2.947-1.029-5.624-3.191-7.678c-2.041-2.177-4.609-3.325-7.678-3.325
										L429.641,592.031L429.641,592.031z"/>
								</defs>
								<clipPath id="SVGID_8_">
									<use xlink:href="#SVGID_7_"  overflow="visible"/>
								</clipPath>
								
									<radialGradient id="SVGID_9_" cx="-1120.6411" cy="-623.0659" r="0.0295" gradientTransform="matrix(1048.9801 0 0 1048.9801 1175959 654168.8125)" gradientUnits="userSpaceOnUse">
									<stop  offset="0" style="stop-color:#E39826"/>
									<stop  offset="1" style="stop-color:#DD5D26"/>
								</radialGradient>
								<rect x="414.811" y="584.366" clip-path="url(#SVGID_8_)" fill="url(#SVGID_9_)" width="25.576" height="30.173"/>
							</g>
						</g>
					</g>
				</g>
			</g>
		</g>
		<g>
			<g>
				<g>
					<g>
						<g>
							<g>
								<defs>
									<path id="SVGID_10_" d="M411.352,584.366c-3.07,0-5.625,1.148-7.801,3.326c-2.178,2.041-3.189,4.73-3.189,7.678
										c0,3.067,1.027,5.623,3.189,7.8c2.041,2.177,4.609,3.325,7.678,3.325v-7.678c-0.893-0.122-1.541-0.515-2.176-1.149
										c-0.637-0.636-1.027-1.406-1.027-2.176c0-0.893,0.379-1.784,1.027-2.434c0.648-0.648,1.404-1.026,2.297-1.026h3.068v-7.678
										h-3.068v0.012H411.352z M414.811,584.366v10.99v0.122c0,0.892-0.377,1.661-1.027,2.298
										c-0.635,0.636-1.404,1.026-2.297,1.026l0,0v7.68l0,0c2.813,0,5.244-0.894,7.285-2.813c2.176,1.784,4.475,2.813,7.164,2.813
										v-7.68c-0.891,0-1.662-0.379-2.297-1.148c-0.635-0.771-1.027-1.541-1.148-2.298l0,0v-11.125L414.811,584.366
										L414.811,584.366z M416.988,578.485c-1.406,1.405-2.043,3.325-2.178,5.502h7.68v-7.679
										C420.178,576.309,418.395,577.08,416.988,578.485"/>
								</defs>
								<clipPath id="SVGID_11_">
									<use xlink:href="#SVGID_10_"  overflow="visible"/>
								</clipPath>
								
									<radialGradient id="SVGID_12_" cx="-1120.0693" cy="-623.063" r="0.0298" gradientTransform="matrix(1057.967 0 0 1057.967 1185406.75 659764)" gradientUnits="userSpaceOnUse">
									<stop  offset="0" style="stop-color:#01A2CF"/>
									<stop  offset="1" style="stop-color:#005D9A"/>
								</radialGradient>
								<rect x="400.359" y="576.309" clip-path="url(#SVGID_11_)" fill="url(#SVGID_12_)" width="25.576" height="30.174"/>
							</g>
						</g>
					</g>
				</g>
			</g>
		</g>
	</g>
</g>
</svg>
